<mxfile host="65bd71144e">
    <diagram id="stv4k0gGzNc69gaz2TCE" name="Seite-1">
        <mxGraphModel dx="2048" dy="1068" grid="1" gridSize="10" guides="1" tooltips="1" connect="1" arrows="1" fold="1" page="1" pageScale="1" pageWidth="827" pageHeight="1169" background="#ffffff" math="0" shadow="0">
            <root>
                <mxCell id="0"/>
                <mxCell id="1" parent="0"/>
                <mxCell id="2" value="" style="shape=flexArrow;endArrow=classic;startArrow=classic;html=1;strokeColor=none;fillColor=#aaa8ac;" edge="1" parent="1">
                    <mxGeometry width="100" height="100" relative="1" as="geometry">
                        <mxPoint x="74" y="280" as="sourcePoint"/>
                        <mxPoint x="754" y="280" as="targetPoint"/>
                    </mxGeometry>
                </mxCell>
                <mxCell id="3" value="" style="shape=flexArrow;endArrow=classic;startArrow=classic;html=1;strokeColor=none;fillColor=#aaa8ac;" edge="1" parent="1">
                    <mxGeometry width="100" height="100" relative="1" as="geometry">
                        <mxPoint x="414" y="40" as="sourcePoint"/>
                        <mxPoint x="414" y="560" as="targetPoint"/>
                    </mxGeometry>
                </mxCell>
                <mxCell id="4" value="Innovator" style="ellipse;whiteSpace=wrap;html=1;strokeColor=#000000;fillColor=none;fontStyle=1;fontColor=#000000;fontSize=16;strokeWidth=2;sketch=1;curveFitting=1;jiggle=2;" vertex="1" parent="1">
                    <mxGeometry x="600" y="50" width="150" height="100" as="geometry"/>
                </mxCell>
                <mxCell id="5" value="Champion" style="ellipse;whiteSpace=wrap;html=1;strokeColor=#000000;fillColor=none;fontStyle=1;fontColor=#000000;fontSize=16;strokeWidth=2;sketch=1;curveFitting=1;jiggle=2;" vertex="1" parent="1">
                    <mxGeometry x="340" y="80" width="300" height="100" as="geometry"/>
                </mxCell>
                <mxCell id="6" value="Bandwagon" style="ellipse;whiteSpace=wrap;html=1;strokeColor=#000000;fillColor=none;fontStyle=1;fontColor=#000000;fontSize=16;strokeWidth=2;sketch=1;curveFitting=1;jiggle=2;" vertex="1" parent="1">
                    <mxGeometry x="160" y="120" width="180" height="150" as="geometry"/>
                </mxCell>
                <mxCell id="7" value="Cowboy" style="ellipse;whiteSpace=wrap;html=1;strokeColor=#000000;fillColor=none;fontStyle=1;fontColor=#000000;fontSize=16;strokeWidth=2;sketch=1;curveFitting=1;jiggle=2;" vertex="1" parent="1">
                    <mxGeometry x="120" y="240" width="260" height="160" as="geometry"/>
                </mxCell>
                <mxCell id="8" value="Deceiver" style="ellipse;whiteSpace=wrap;html=1;strokeColor=#000000;fillColor=none;fontStyle=1;fontColor=#000000;fontSize=16;strokeWidth=2;sketch=1;curveFitting=1;jiggle=2;" vertex="1" parent="1">
                    <mxGeometry x="250" y="310" width="250" height="160" as="geometry"/>
                </mxCell>
                <mxCell id="9" value="Denier" style="ellipse;whiteSpace=wrap;html=1;strokeColor=#000000;fillColor=none;fontStyle=1;fontColor=#000000;fontSize=16;strokeWidth=2;sketch=1;curveFitting=1;jiggle=2;" vertex="1" parent="1">
                    <mxGeometry x="100" y="410" width="230" height="130" as="geometry"/>
                </mxCell>
                <mxCell id="10" value="Workhorse" style="ellipse;whiteSpace=wrap;html=1;strokeColor=#000000;fillColor=none;fontStyle=1;fontColor=#000000;fontSize=16;strokeWidth=2;sketch=1;curveFitting=1;jiggle=2;" vertex="1" parent="1">
                    <mxGeometry x="300" y="160" width="390" height="200" as="geometry"/>
                </mxCell>
                <mxCell id="11" value="Positive" style="text;html=1;strokeColor=none;fillColor=none;align=center;verticalAlign=middle;whiteSpace=wrap;rounded=0;fontSize=22;fontColor=#000000;fontStyle=1" vertex="1" parent="1">
                    <mxGeometry x="384" y="10" width="60" height="30" as="geometry"/>
                </mxCell>
                <mxCell id="12" value="Negative" style="text;html=1;strokeColor=none;fillColor=none;align=center;verticalAlign=middle;whiteSpace=wrap;rounded=0;fontSize=22;fontColor=#000000;fontStyle=1" vertex="1" parent="1">
                    <mxGeometry x="384" y="570" width="60" height="30" as="geometry"/>
                </mxCell>
                <mxCell id="13" value="Expierienced" style="text;html=1;strokeColor=none;fillColor=none;align=center;verticalAlign=middle;whiteSpace=wrap;rounded=0;fontSize=22;fontColor=#000000;fontStyle=1;rotation=90;" vertex="1" parent="1">
                    <mxGeometry x="750" y="270" width="60" height="30" as="geometry"/>
                </mxCell>
                <mxCell id="14" value="Inexpierienced" style="text;html=1;strokeColor=none;fillColor=none;align=center;verticalAlign=middle;whiteSpace=wrap;rounded=0;fontSize=22;fontColor=#000000;fontStyle=1;rotation=-90;" vertex="1" parent="1">
                    <mxGeometry x="20" y="260" width="60" height="30" as="geometry"/>
                </mxCell>
            </root>
        </mxGraphModel>
    </diagram>
</mxfile>